# xmcd
#
# Track frame offsets: 
#        150
#        13560
#        29917
#        59212
#        82102
#
# Disc length: 2421 seconds
#
# Revision: 2
# Processed by: cddbd v1.5.2PL0 Copyright (c) Steve Scherf et al.
# Submitted via: ExactAudioCopyFreeDBPlugin 1.0
#
DISCID=45097305
DTITLE=Savoy Brown - A Step Further
DYEAR=1969
DGENRE=Blues
TTITLE0=Made up My Mind
TTITLE1=Waiting in the Bamboo Groove
TTITLE2=Life's One Act Play
TTITLE3=I'm Tired\\Where Am I
TTITLE4=Savoy Brown Boogie: Feel So Good\\Whole Lotta Shakin' Goin' On
TTITLE4=\\Little Queenie\\Purple Haze\\Hernando's Hideaway [Live][Medl
TTITLE4=ey]
EXTD=
EXTT0=
EXTT1=
EXTT2=
EXTT3=
EXTT4=
PLAYORDER=
